<svg height="512" viewBox="0 0 512 512" width="512" xmlns="http://www.w3.org/2000/svg"><path d="m255.957 487.994a207.438 207.438 0 0 1 -133.633-48.535l-32.863 33.625a16 16 0 0 1 -22.883-22.375l46.95-48.008a11.277 11.277 0 0 1 15.945-.175 182.017 182.017 0 0 0 128 52.234c49.1 0 94.25-19.371 127.141-54.539 35.82-38.3 52.215-88.375 46.172-141a172.673 172.673 0 0 0 -35.6-86.934c-29.512-37.641-71.441-61.418-118.066-66.953a139.99 139.99 0 0 1 -52.805-17.079l-25.631-14.519 31.461-.453c55.641 0 132.371 19.988 171.383 58.2 48.9 47.895 70.66 114.668 59.7 183.2a201.935 201.935 0 0 1 -31.528 80.034c-37.606 56.059-97.4 89.973-164.063 93.055-3.222.148-6.457.222-9.68.222z" fill="#fdb62f"/><path d="m405.789 424.369-24.866-20.583a170.441 170.441 0 0 1 -45.833 32.976l24.048 24a208.176 208.176 0 0 0 46.651-36.393z" fill="#ec9e15"/><path d="m100.337 25.845 11.437 35.2h37.012a3.2 3.2 0 0 1 1.881 5.789l-29.943 21.756 11.437 35.2a3.2 3.2 0 0 1 -4.924 3.578l-29.943-21.755-29.944 21.755a3.2 3.2 0 0 1 -4.924-3.578l11.437-35.2-29.943-21.755a3.2 3.2 0 0 1 1.88-5.789h37.013l11.437-35.2a3.2 3.2 0 0 1 6.087-.001z" fill="#f85542"/><path d="m424.434 423.8-240.634-199.18 69.965-76.946-79.644-7.542-96.871 106.542 47.35 43.055 37.676-41.429 221.1 220.657a30.546 30.546 0 1 0 41.058-45.157z" fill="#fdb62f"/><path d="m194.075 233.123-10.271-8.503 69.965-76.946-91.493 100.622v.001l9.343 9.324z" fill="#ec9e15"/></svg>