<svg height="512" viewBox="0 0 512 512" width="512" xmlns="http://www.w3.org/2000/svg"><g id="filled_outline" data-name="filled outline"><path d="m255.52 31.998 54.657 168.215h176.871l-143.092 103.962 54.656 168.215-143.092-103.962-143.092 103.962 54.656-168.215-143.092-103.962h176.872z" fill="#de4c3b"/><path d="m247.067 261.514-196.242-61.302h-26.833l20.222 14.693 197.911 61.826-121.473 170.348-8.224 25.309.001.001 20.393-14.816 122.249-171.434 122.964 171.3 20.578 14.951-8.146-25.07-122.452-170.586 198.871-61.873 20.162-14.649h-26.945l-197.034 61.302.403-205.043-7.952-24.473-8.049 24.772z" fill="#f85542"/><circle cx="255.048" cy="280.39" fill="#fdb62f" r="80"/><path d="m224.075 336.155-12.907-9.469 11.246-15.336a8.019 8.019 0 0 1 5.274-3.18 8.1 8.1 0 0 1 5.969 1.508 40 40 0 1 0 42.558-67.453l7.469-14.157a56 56 0 1 1 -52.793 98.782z" fill="#ec9e15"/><path d="m303.973 321.522-58.789-52.941 16.062-17.836-29.133-15.469-32.12 35.669 23.779 21.414 10.706-11.89 58.792 52.943z" fill="#ec9e15"/><path d="m487.048 192.213h-171.059l-52.86-162.68a8 8 0 0 0 -15.218 0l-52.86 162.68h-171.059a8 8 0 0 0 -4.7 14.469l138.388 100.555-52.86 162.687a8 8 0 0 0 12.313 8.938l138.387-100.539 138.391 100.539a8 8 0 0 0 12.312-8.938l-52.859-162.687 138.387-100.555a8 8 0 0 0 -4.7-14.469zm-176.872 16h124.273l-101.428 31.533a88.1 88.1 0 0 0 -69.814-46.94l.21-110.611 39.15 120.487a8 8 0 0 0 7.609 5.531zm-66.976 159.287-95.81 69.608 59.36-83.236a87.4 87.4 0 0 0 36.45 13.628zm60.4-13.778 59.627 83.078-95.548-69.42a87.431 87.431 0 0 0 35.915-13.659zm-48.547-1.328a72 72 0 1 1 72-72 72.081 72.081 0 0 1 -72.006 71.999zm-54.183-144.18a8 8 0 0 0 7.609-5.531l38.936-119.849-.209 109.956a88.085 88.085 0 0 0 -70.092 46.872l-100.755-31.449zm-132.731 14.186 102.81 32.091a85.765 85.765 0 0 0 -2.548 40.76zm104.846 89.517a88.168 88.168 0 0 0 21.254 31.934l-58.1 81.473zm202.1 113.963-59.021-82.222a88.114 88.114 0 0 0 21.546-33.114zm-33.51-129.853a86.264 86.264 0 0 0 -2.4-41.435l103.864-32.292z"/><path d="m313.489 274.158a55.655 55.655 0 0 0 -29.8-46.086l-7.469 14.157a40.007 40.007 0 0 1 11.368 61.883c-.443.5-.985.873-1.449 1.349l-35-31.522 16.053-17.839a7.994 7.994 0 0 0 -2.192-12.41l-29.133-15.469a7.984 7.984 0 0 0 -9.7 1.711l-32.12 35.668a8 8 0 0 0 .594 11.3l23.781 21.414a8 8 0 0 0 11.3-.594l10.7-11.886 31.978 28.787a39.055 39.055 0 0 1 -38.742-4.939 8 8 0 0 0 -11.243 1.672l-11.247 15.336 12.907 9.468 6.816-9.3a55.873 55.873 0 0 0 54.429-.6l7.95 7.158 10.7-11.89-5.882-5.3c.49-.514 1.011-.989 1.484-1.524a55.632 55.632 0 0 0 13.917-40.544zm-90.3 6.907-11.891-10.711 22.586-25.079 14.567 7.735z"/></g></svg>